<svg width="261" height="260" viewBox="0 0 261 260" fill="none" xmlns="http://www.w3.org/2000/svg">
<path d="M35.2754 149.5C35.2754 174.842 45.3765 199.145 63.3565 217.064C81.3366 234.983 105.723 245.05 131.15 245.05C156.578 245.05 180.964 234.983 198.944 217.064C216.924 199.145 227.025 174.842 227.025 149.5C227.025 124.159 216.924 99.8552 198.944 81.9361C180.964 64.017 156.578 53.9502 131.15 53.9502C105.723 53.9502 81.3366 64.017 63.3565 81.9361C45.3765 99.8552 35.2754 124.159 35.2754 149.5Z" fill="#E9EBF8" stroke="#E4E5EB" stroke-width="3"/>
<path d="M159.688 120.12H30.3064C28.9273 120.12 27.6047 120.668 26.6295 121.643C25.6543 122.618 25.1064 123.941 25.1064 125.32V208.869H164.888V125.32C164.888 123.941 164.34 122.618 163.365 121.643C162.389 120.668 161.067 120.12 159.688 120.12Z" fill="#F0F0F0" stroke="#676B8D" stroke-width="3" stroke-linecap="round" stroke-linejoin="round"/>
<path d="M155.021 129.992H35.1114L34.9736 208.868H155.021V129.992Z" fill="#4855C6"/>
<path d="M125.285 129.992L40.5922 208.868H34.9736L35.1114 129.992H125.285Z" fill="#5C69E0"/>
<path d="M155.021 129.992H35.1114L34.9736 208.868H155.021V129.992Z" stroke="#676B8D" stroke-width="3" stroke-linecap="round" stroke-linejoin="round"/>
<path opacity="0.15" d="M29.2178 227.888C29.2178 229.025 36.1481 230.117 48.4843 230.921C60.8204 231.726 77.5518 232.178 94.9978 232.178C112.444 232.178 129.175 231.726 141.511 230.921C153.847 230.117 160.778 229.025 160.778 227.888C160.778 226.75 153.847 225.659 141.511 224.854C129.175 224.05 112.444 223.598 94.9978 223.598C77.5518 223.598 60.8204 224.05 48.4843 224.854C36.1481 225.659 29.2178 226.75 29.2178 227.888Z" fill="#45413C"/>
<path d="M177.222 218.735H12.7725V211.455C12.7725 210.766 13.0464 210.105 13.534 209.617C14.0216 209.129 14.6829 208.855 15.3725 208.855H174.622C175.312 208.855 175.973 209.129 176.461 209.617C176.949 210.105 177.222 210.766 177.222 211.455V218.735Z" fill="#F0F0F0" stroke="#676B8D" stroke-width="3" stroke-linecap="round" stroke-linejoin="round"/>
<path d="M177.222 218.735C161.949 223.099 146.141 225.313 130.256 225.313H59.7389C43.8539 225.313 28.0465 223.099 12.7725 218.735H177.222Z" fill="#BDBEC0" stroke="#676B8D" stroke-width="3" stroke-linecap="round" stroke-linejoin="round"/>
<path d="M107.478 188.019C106.675 188.021 105.881 187.864 105.139 187.557C104.398 187.25 103.725 186.799 103.159 186.23L94.9977 178.071L86.8389 186.23C86.2709 186.797 85.5967 187.247 84.8549 187.554C84.1131 187.861 83.3181 188.018 82.5153 188.018C81.7125 188.018 80.9177 187.859 80.1763 187.551C79.4348 187.244 78.7612 186.793 78.1939 186.225C77.6266 185.657 77.1767 184.983 76.87 184.241C76.5632 183.499 76.4056 182.704 76.406 181.901C76.4065 181.099 76.5651 180.304 76.8728 179.562C77.1804 178.821 77.6311 178.147 78.1991 177.58L86.3579 169.419L78.1991 161.26C77.6172 160.696 77.1534 160.022 76.8345 159.277C76.5157 158.532 76.3483 157.731 76.342 156.92C76.3357 156.11 76.4906 155.306 76.7978 154.556C77.105 153.807 77.5584 153.125 78.1314 152.552C78.7044 151.979 79.3857 151.526 80.1356 151.219C80.8854 150.912 81.689 150.757 82.4993 150.763C83.3097 150.769 84.1106 150.937 84.8557 151.255C85.6007 151.574 86.2748 152.038 86.8389 152.62L94.9977 160.781L103.159 152.62C104.311 151.504 105.855 150.885 107.459 150.897C109.063 150.91 110.598 151.552 111.732 152.687C112.866 153.821 113.509 155.356 113.522 156.96C113.534 158.564 112.915 160.108 111.799 161.26L103.637 169.419L111.799 177.58C112.653 178.435 113.234 179.523 113.47 180.708C113.705 181.893 113.584 183.121 113.121 184.237C112.659 185.354 111.876 186.308 110.871 186.979C109.867 187.65 108.686 188.008 107.478 188.009V188.019Z" fill="white" stroke="#313A87" stroke-width="3" stroke-linecap="round" stroke-linejoin="round"/>
<path d="M130.5 87.1001H242.3V156H130.5V87.1001Z" fill="#E8818F"/>
<path d="M130.5 87.1001H242.3V156H130.5V87.1001Z" stroke="#676B8D" stroke-width="3" stroke-linecap="round" stroke-linejoin="round"/>
<path d="M233.694 66.7031H138.979C137.837 66.7031 136.707 66.9282 135.652 67.3653C134.597 67.8025 133.639 68.4433 132.833 69.251C132.026 70.0588 131.386 71.0176 130.95 72.0727C130.514 73.1278 130.291 74.2585 130.292 75.4001V87.3601H242.381V75.4001C242.382 74.2585 242.158 73.1278 241.722 72.0727C241.286 71.0176 240.647 70.0588 239.84 69.251C239.033 68.4433 238.075 67.8025 237.021 67.3653C235.966 66.9282 234.836 66.7031 233.694 66.7031Z" fill="white"/>
<path d="M233.636 66.9502H139.164C138.026 66.9502 136.898 67.1697 135.846 67.5962C134.794 68.0226 133.839 68.6477 133.034 69.4356C132.229 70.2235 131.591 71.1588 131.157 72.188C130.722 73.2172 130.499 74.3201 130.5 75.4337V87.1002H242.3V75.4337C242.301 74.3201 242.078 73.2172 241.643 72.188C241.209 71.1588 240.571 70.2235 239.766 69.4356C238.961 68.6477 238.006 68.0226 236.954 67.5962C235.902 67.1697 234.774 66.9502 233.636 66.9502V66.9502Z" stroke="#676B8D" stroke-width="3" stroke-linecap="round" stroke-linejoin="round"/>
<path d="M138.979 76.9808C138.979 77.5514 139.091 78.1163 139.309 78.6434C139.528 79.1706 139.848 79.6495 140.251 80.0529C140.654 80.4564 141.133 80.7764 141.661 80.9947C142.188 81.2131 142.753 81.3254 143.323 81.3254C143.894 81.3254 144.459 81.2131 144.986 80.9947C145.513 80.7764 145.992 80.4564 146.395 80.0529C146.799 79.6495 147.119 79.1706 147.337 78.6434C147.555 78.1163 147.668 77.5514 147.668 76.9808C147.668 76.4103 147.555 75.8453 147.337 75.3182C147.119 74.7911 146.799 74.3122 146.395 73.9087C145.992 73.5053 145.513 73.1853 144.986 72.9669C144.459 72.7486 143.894 72.6362 143.323 72.6362C142.753 72.6362 142.188 72.7486 141.661 72.9669C141.133 73.1853 140.654 73.5053 140.251 73.9087C139.848 74.3122 139.528 74.7911 139.309 75.3182C139.091 75.8453 138.979 76.4103 138.979 76.9808Z" fill="#E4E5EB"/>
<path d="M154.207 76.9808C154.207 78.1331 154.665 79.2382 155.48 80.0529C156.294 80.8677 157.399 81.3254 158.552 81.3254C159.704 81.3254 160.809 80.8677 161.624 80.0529C162.439 79.2382 162.896 78.1331 162.896 76.9808C162.896 75.8286 162.439 74.7235 161.624 73.9087C160.809 73.094 159.704 72.6362 158.552 72.6362C157.399 72.6362 156.294 73.094 155.48 73.9087C154.665 74.7235 154.207 75.8286 154.207 76.9808Z" fill="#E4E5EB"/>
<path d="M169.435 76.9808C169.435 78.1331 169.892 79.2382 170.707 80.0529C171.522 80.8677 172.627 81.3254 173.779 81.3254C174.931 81.3254 176.037 80.8677 176.851 80.0529C177.666 79.2382 178.124 78.1331 178.124 76.9808C178.124 75.8286 177.666 74.7235 176.851 73.9087C176.037 73.094 174.931 72.6362 173.779 72.6362C172.627 72.6362 171.522 73.094 170.707 73.9087C169.892 74.7235 169.435 75.8286 169.435 76.9808Z" fill="#E4E5EB"/>
<path d="M154.808 110.246C154.808 111.383 155.26 112.475 156.064 113.279C156.869 114.084 157.96 114.536 159.098 114.536C160.235 114.536 161.327 114.084 162.131 113.279C162.936 112.475 163.388 111.383 163.388 110.246C163.388 109.108 162.936 108.017 162.131 107.212C161.327 106.408 160.235 105.956 159.098 105.956C157.96 105.956 156.869 106.408 156.064 107.212C155.26 108.017 154.808 109.108 154.808 110.246Z" fill="#676B8D"/>
<path d="M209.147 110.246C209.147 111.383 209.599 112.475 210.404 113.279C211.209 114.084 212.3 114.536 213.437 114.536C214.575 114.536 215.666 114.084 216.471 113.279C217.275 112.475 217.727 111.383 217.727 110.246C217.727 109.108 217.275 108.017 216.471 107.212C215.666 106.408 214.575 105.956 213.437 105.956C212.3 105.956 211.209 106.408 210.404 107.212C209.599 108.017 209.147 109.108 209.147 110.246Z" fill="#676B8D"/>
<path d="M173.99 141.061C173.505 141.06 173.026 140.949 172.59 140.736C172.154 140.523 171.773 140.213 171.475 139.83C171.177 139.448 170.97 139.002 170.87 138.527C170.77 138.052 170.78 137.561 170.899 137.09C171.77 133.676 173.754 130.649 176.536 128.488C179.319 126.326 182.742 125.153 186.266 125.153C189.79 125.153 193.213 126.326 195.995 128.488C198.778 130.649 200.762 133.676 201.633 137.09C201.755 137.56 201.767 138.052 201.668 138.527C201.568 139.002 201.359 139.447 201.059 139.828C200.761 140.212 200.38 140.523 199.943 140.737C199.507 140.95 199.028 141.061 198.542 141.061C194.5 140.197 190.395 139.667 186.267 139.475C182.138 139.667 178.032 140.197 173.99 141.061Z" fill="#E9EBF8" stroke="#676B8D" stroke-width="3" stroke-linecap="round" stroke-linejoin="round"/>
</svg>
